# xmcd
#
# Track frame offsets: 
#        150
#        44625
#        63750
#        87825
#        104850
#        133500
#        168525
#
# Disc length: 2667 seconds
#
# Revision: 1
# Processed by: cddbd v1.5.2PL0 Copyright (c) Steve Scherf et al.
# Submitted via: ExactAudioCopy v0.95b4
#
DISCID=600a6907
DTITLE=Marion Brown Quartet - Offering
DYEAR=1993
DGENRE=Jazz
TTITLE0=Terra
TTITLE1=Self Portrait In Three Colors
TTITLE2=Ode to Coltrane
TTITLE3=Sly Entrance
TTITLE4=Golden Lady In The Graham Cracker Window
TTITLE5=Bershire Blues
TTITLE6=After The Rain
EXTD=YEAR: 1993
EXTT0=
EXTT1=
EXTT2=
EXTT3=
EXTT4=
EXTT5=
EXTT6=
PLAYORDER=
